<svg width="366" height="276" viewBox="0 0 366 276" fill="none" xmlns="http://www.w3.org/2000/svg">
<path d="M127.673 368.92C60.0681 368.92 5.24152 312.647 5.24153 243.202C5.24153 173.758 60.0681 117.484 127.673 117.484C195.277 117.484 250.104 173.758 250.104 243.202C250.104 312.647 195.277 368.92 127.673 368.92Z" stroke="#6246E5"/>
<path d="M140.613 373.902C64.9684 373.902 3.62411 310.937 3.62411 233.237C3.62411 155.538 64.9684 92.5727 140.613 92.5727C216.257 92.5728 277.601 155.538 277.601 233.237C277.601 310.937 216.257 373.902 140.613 373.902Z" stroke="#6246E5"/>
<path d="M151.127 378.885C68.3355 378.885 1.19774 309.971 1.19775 224.934C1.19775 139.897 68.3355 70.9834 151.127 70.9834C233.918 70.9834 301.055 139.897 301.055 224.934C301.055 309.971 233.918 378.885 151.127 378.885Z" stroke="#6246E5"/>
<path d="M166.493 382.206C77.449 382.206 5.24195 308.088 5.24195 216.63C5.24196 125.173 77.449 51.0542 166.493 51.0542C255.538 51.0542 327.745 125.173 327.745 216.63C327.745 308.088 255.538 382.206 166.493 382.206Z" stroke="#6246E5"/>
<path d="M181.455 385.527C86.3808 385.527 9.28554 306.39 9.28555 208.741C9.28555 111.092 86.3809 31.9551 181.455 31.9551C276.529 31.9551 353.625 111.092 353.625 208.741C353.625 306.39 276.529 385.527 181.455 385.527Z" stroke="#6246E5"/>
<path d="M198.439 389.68C93.9848 389.68 9.28554 302.735 9.28554 195.456C9.28555 88.176 93.9848 1.23143 198.439 1.23144C302.893 1.23144 387.593 88.1761 387.593 195.456C387.593 302.735 302.893 389.68 198.439 389.68Z" stroke="#6246E5"/>
</svg>
