<svg width="258" height="352" viewBox="0 0 258 352" fill="none" xmlns="http://www.w3.org/2000/svg">
<g opacity="0.1">
<mask id="mask0" style="mask-type:alpha" maskUnits="userSpaceOnUse" x="0" y="0" width="258" height="352">
<path d="M1.01074 0.5H234C246.979 0.5 257.5 11.0213 257.5 24V351.022H50.5107C23.1727 351.022 1.01074 328.86 1.01074 301.522V0.5Z" fill="url(#paint0_linear)" stroke="#6246E5"/>
</mask>
<g mask="url(#mask0)">
<path d="M323.158 178.32C323.158 229.033 283.064 270.123 233.631 270.123C184.198 270.123 144.104 229.033 144.104 178.32C144.104 127.607 184.198 86.5166 233.631 86.5166C283.064 86.5166 323.158 127.607 323.158 178.32Z" stroke="#6246E5"/>
<path d="M326.712 168.604C326.712 225.354 281.844 271.338 226.524 271.338C171.203 271.338 126.336 225.354 126.336 168.604C126.336 111.853 171.203 65.8696 226.524 65.8696C281.844 65.8696 326.712 111.853 326.712 168.604Z" stroke="#6246E5"/>
<path d="M330.266 160.709C330.266 222.826 281.155 273.16 220.601 273.16C160.047 273.16 110.936 222.826 110.936 160.709C110.936 98.5931 160.047 48.2593 220.601 48.2593C281.155 48.2593 330.266 98.5931 330.266 160.709Z" stroke="#6246E5"/>
<path d="M332.635 149.171C332.635 215.983 279.812 270.123 214.678 270.123C149.544 270.123 96.7218 215.983 96.7218 149.171C96.7218 82.3598 149.544 28.2197 214.678 28.2197C279.812 28.2197 332.635 82.3598 332.635 149.171Z" stroke="#6246E5"/>
<path d="M335.004 137.937C335.004 209.277 278.601 267.087 209.051 267.087C139.502 267.087 83.0992 209.277 83.0992 137.937C83.0992 66.5981 139.502 8.7876 209.051 8.7876C278.601 8.7876 335.004 66.5981 335.004 137.937Z" stroke="#6246E5"/>
<path d="M337.965 125.185C337.965 203.567 275.994 267.087 199.575 267.087C123.156 267.087 61.1849 203.567 61.1849 125.185C61.1849 46.8026 123.156 -16.7173 199.575 -16.7173C275.994 -16.7173 337.965 46.8026 337.965 125.185Z" stroke="#6246E5"/>
</g>
</g>
<defs>
<linearGradient id="paint0_linear" x1="183.132" y1="9.86234" x2="-1.41392" y2="350.479" gradientUnits="userSpaceOnUse">
<stop stop-color="#747DEF"/>
<stop offset="1" stop-color="#5E3BE1"/>
</linearGradient>
</defs>
</svg>
