<svg width="127" height="109" viewBox="0 0 127 109" fill="none" xmlns="http://www.w3.org/2000/svg">
<path d="M74.2048 60.8679C72.8931 61.0013 71.6319 61.4207 70.4996 62.0996C67.5464 63.814 65.9323 66.6445 66.8946 68.4213C67.8568 70.198 71.0308 70.2477 73.984 68.5333C75.1339 67.8869 76.1373 66.9921 76.9324 65.9041C77.3 65.3761 77.3305 64.655 77.0103 64.0655L75.7602 61.7574C75.442 61.1664 74.8316 60.8177 74.2048 60.8679Z" fill="#D5D6DB"/>
<path d="M66.5915 33.8687C65.6404 33.9656 64.7258 34.2699 63.9046 34.7623C61.7638 36.0051 60.5926 38.0575 61.2898 39.3448C61.987 40.6321 64.2894 40.6679 66.43 39.4252C67.2638 38.9562 67.9913 38.3069 68.5679 37.518C68.8342 37.1352 68.8561 36.6128 68.624 36.1853L67.7189 34.514C67.4884 34.0856 67.0461 33.8324 66.5915 33.8687Z" fill="#D5D6DB"/>
<path d="M54.068 33.4235C53.8521 33.3656 53.6271 33.395 53.4368 33.5055L48.4164 36.4115C47.9965 36.6536 47.855 37.218 48.1009 37.6723C48.1571 37.7764 48.2313 37.8692 48.3192 37.9452L61.7658 49.6339L78.5061 39.9439L54.068 33.4235Z" fill="#029BC5"/>
<path d="M109.352 36.9272L62.5353 65.6632L34.4165 74.7328L19.8917 75.8802L18.1002 72.3599L96.198 25.6292C98.525 24.2289 101.165 23.5608 103.85 23.6929C105.026 23.7582 106.197 23.9895 107.334 24.3807C108.342 24.7182 109.308 25.2146 110.202 25.8551C111.201 26.5785 113.047 26.9355 113.704 28.1662C113.706 28.1647 115.391 33.6045 109.352 36.9272Z" fill="#E1E6E9"/>
<path d="M62.0017 58.4695L43.2204 93.396C42.9891 93.8916 43.1767 94.5146 43.6392 94.7876C43.923 94.9551 44.2593 94.9573 44.5326 94.7935L49.6338 91.7437C50.6149 91.1567 51.468 90.3513 52.1402 89.3772L89.6283 41.0459L62.0017 58.4695Z" fill="#029BC5"/>
<path d="M10.6444 57.9193C10.2981 57.7443 9.89829 57.7512 9.57124 57.9375L5.46484 60.2766C4.9053 60.5951 4.71778 61.3359 5.04584 61.9315C5.10833 62.0448 5.18696 62.1479 5.27922 62.2368L17.8647 74.3956L29.9709 67.6726L10.6444 57.9193Z" fill="#029BC5"/>
<path d="M21.1581 75.2231L15.1066 84.9132C15.0177 85.0521 15.0511 85.2488 15.1812 85.3523C15.275 85.4268 15.398 85.4348 15.4941 85.3727L19.4427 83.0011C19.4734 82.9827 19.5007 82.9579 19.5228 82.9282L28.4777 70.8322L21.1581 75.2231Z" fill="#029BC5"/>
<path d="M107.098 23.9394C105.95 23.5666 104.769 23.3477 103.582 23.2873C102.522 24.9286 101.894 26.8561 101.76 28.8775C101.765 29.2883 102.081 29.6304 102.465 29.6415C102.584 29.6448 102.701 29.6155 102.804 29.5559L109.992 25.3469C109.09 24.7347 108.115 24.2608 107.098 23.9394Z" fill="#029BC5"/>
<path d="M91.0113 32.0186L95.5241 29.5339L100.367 38.0552L95.8541 40.5399L91.0113 32.0186Z" fill="#D5D6DB"/>
<path d="M87.8951 35.6409C87.3491 35.9413 87.1676 36.6509 87.4903 37.2256L88.013 38.1567C88.3538 38.7208 89.0638 38.9189 89.5989 38.599C90.1082 38.2944 90.2792 37.6259 89.9898 37.069L89.4671 36.1379C89.1447 35.5637 88.4412 35.3411 87.8951 35.6409Z" fill="#3A556A"/>
<path d="M83.5415 38.4134C82.9954 38.7138 82.814 39.4233 83.1366 39.9981L83.6593 40.9292C84.0001 41.4933 84.7101 41.6913 85.2453 41.3715C85.7545 41.0669 85.9255 40.3983 85.6362 39.8415L85.1135 38.9104C84.7909 38.3363 84.0873 38.1137 83.5415 38.4134Z" fill="#3A556A"/>
<path d="M79.1865 41.1865C78.6411 41.4875 78.4604 42.1963 78.7827 42.7705L79.3055 43.7016C79.6463 44.2657 80.3563 44.4637 80.8914 44.1439C81.4007 43.8393 81.5717 43.1708 81.2823 42.6139L80.7596 41.6828C80.437 41.1081 79.7328 40.8859 79.1865 41.1865Z" fill="#3A556A"/>
<path d="M74.833 43.9589C74.2875 44.26 74.1069 44.9687 74.4292 45.543L74.9519 46.4741C75.2928 47.0382 76.0028 47.2363 76.5379 46.9164C77.0472 46.6118 77.2182 45.9433 76.9288 45.3864L76.4061 44.4553C76.0832 43.8807 75.379 43.6585 74.833 43.9589Z" fill="#3A556A"/>
<path d="M70.4793 46.7311C69.9339 47.032 69.7531 47.7405 70.0755 48.3145L70.5983 49.2453C70.9206 49.8191 71.6242 50.041 72.1699 49.7409C72.7155 49.4409 72.8966 48.7325 72.5744 48.1587L72.0516 47.228C71.73 46.6538 71.0266 46.4312 70.4805 46.7305C70.48 46.7308 70.4798 46.7309 70.4793 46.7311Z" fill="#3A556A"/>
<path d="M66.1257 49.5036C65.5802 49.8045 65.3995 50.513 65.7219 51.087L66.2447 52.0177C66.5669 52.5915 67.2705 52.8134 67.8162 52.5134C68.3618 52.2133 68.5429 51.505 68.2207 50.9312L67.6979 50.0005C67.3763 49.4263 66.6729 49.2037 66.1268 49.503C66.1264 49.5032 66.1259 49.5035 66.1257 49.5036Z" fill="#3A556A"/>
<path d="M61.7718 52.2761C61.2263 52.577 61.0456 53.2854 61.368 53.8595L61.8908 54.7902C62.2138 55.3636 62.9177 55.5844 63.4627 55.2838C64.0068 54.9836 64.1875 54.2767 63.8666 53.7038L63.3438 52.773C63.0217 52.1989 62.318 51.9764 61.7718 52.2761Z" fill="#3A556A"/>
<path d="M57.418 55.0485C56.8725 55.3494 56.6918 56.0579 57.0142 56.6319L57.537 57.5627C57.8599 58.1361 58.5638 58.3569 59.1088 58.0563C59.6529 57.7561 59.8336 57.0492 59.5127 56.4763L58.99 55.5455C58.6678 54.9713 57.9642 54.7488 57.418 55.0485Z" fill="#3A556A"/>
<path d="M53.0645 57.821C52.519 58.1219 52.3383 58.8304 52.6607 59.4044L53.1834 60.3351C53.5064 60.9085 54.2103 61.1293 54.7553 60.8287C55.2994 60.5285 55.4801 59.8217 55.1592 59.2487L54.6365 58.318C54.314 57.744 53.6104 57.5214 53.0645 57.821Z" fill="#3A556A"/>
<path d="M48.7094 60.5944C48.1638 60.8945 47.9827 61.6028 48.305 62.1766L48.3056 62.1778L48.8284 63.1086C49.1514 63.682 49.8552 63.9028 50.4003 63.6022C50.9444 63.302 51.1251 62.5951 50.8042 62.0222L50.2814 61.0914C49.9592 60.5172 49.2556 60.2947 48.7094 60.5944Z" fill="#3A556A"/>
<path d="M44.357 63.3659C43.8113 63.666 43.6302 64.3743 43.9525 64.9481L43.9532 64.9493L44.4759 65.8801C44.7989 66.4534 45.5028 66.6742 46.0478 66.3736C46.5919 66.0735 46.7727 65.3666 46.4518 64.7936L45.929 63.8629C45.6066 63.2889 44.9029 63.0664 44.357 63.3659Z" fill="#3A556A"/>
</svg>
